<svg width="600" height="500" viewBox="0 0 600 500" fill="none" xmlns="http://www.w3.org/2000/svg">
<rect width="600" height="500" fill="#F6F6F6"/>
<g filter="url(#filter0_d_1_2)">
<path d="M234.053 118.069C233.529 118.111 231.832 118.3 230.282 118.488C199.175 122.091 173.64 145.616 167.418 176.388C164.632 190.213 166.015 207.956 171 222.954C176.279 238.728 185.14 252.512 200.264 268.453C207.428 275.994 213.545 281.65 233.529 299.246C238.368 303.498 243.752 308.253 245.469 309.824C266.92 329.096 280.701 347.09 293.5 365C293.5 365 298.5 373 300.5 373C302.5 373 307 365 307 365C318.668 347.781 330.978 330.29 351.36 311.416C355.361 307.688 352.533 310.767 365.5 299.246C385.526 281.398 403.143 263.949 411.438 253.329C424.907 236.047 431.715 219.749 433.726 199.849C434.124 195.743 434.082 185.919 433.621 182.358C431.422 165.495 424.384 150.999 412.716 139.331C401.048 127.663 386.531 120.604 369.689 118.425C365.646 117.923 356.848 117.923 352.722 118.425C337.367 120.374 323.835 126.532 312.502 136.734C308.501 140.337 303.997 145.469 301.295 149.512C300.667 150.454 300.101 151.23 300.038 151.23C299.975 151.23 299.41 150.454 298.781 149.512C296.079 145.469 291.575 140.337 287.574 136.734C276.451 126.721 263.066 120.541 248.235 118.572C245.176 118.153 236.462 117.86 234.053 118.069Z" fill="#1B88BD"/>
</g>
<circle cx="300" cy="229" r="40" fill="#F6F6F6"/>
<g filter="url(#filter1_d_1_2)">
<rect x="150" y="375" width="300" height="20" rx="10" fill="url(#paint0_linear_1_2)"/>
</g>
<defs>
<filter id="filter0_d_1_2" x="162" y="118" width="275.998" height="263" filterUnits="userSpaceOnUse" color-interpolation-filters="sRGB">
<feFlood flood-opacity="0" result="BackgroundImageFix"/>
<feColorMatrix in="SourceAlpha" type="matrix" values="0 0 0 0 0 0 0 0 0 0 0 0 0 0 0 0 0 0 127 0" result="hardAlpha"/>
<feOffset dy="4"/>
<feGaussianBlur stdDeviation="2"/>
<feComposite in2="hardAlpha" operator="out"/>
<feColorMatrix type="matrix" values="0 0 0 0 0 0 0 0 0 0 0 0 0 0 0 0 0 0 0.25 0"/>
<feBlend mode="normal" in2="BackgroundImageFix" result="effect1_dropShadow_1_2"/>
<feBlend mode="normal" in="SourceGraphic" in2="effect1_dropShadow_1_2" result="shape"/>
</filter>
<filter id="filter1_d_1_2" x="146" y="375" width="308" height="28" filterUnits="userSpaceOnUse" color-interpolation-filters="sRGB">
<feFlood flood-opacity="0" result="BackgroundImageFix"/>
<feColorMatrix in="SourceAlpha" type="matrix" values="0 0 0 0 0 0 0 0 0 0 0 0 0 0 0 0 0 0 127 0" result="hardAlpha"/>
<feOffset dy="4"/>
<feGaussianBlur stdDeviation="2"/>
<feComposite in2="hardAlpha" operator="out"/>
<feColorMatrix type="matrix" values="0 0 0 0 0 0 0 0 0 0 0 0 0 0 0 0 0 0 0.25 0"/>
<feBlend mode="normal" in2="BackgroundImageFix" result="effect1_dropShadow_1_2"/>
<feBlend mode="normal" in="SourceGraphic" in2="effect1_dropShadow_1_2" result="shape"/>
</filter>
<linearGradient id="paint0_linear_1_2" x1="150" y1="385" x2="450" y2="385" gradientUnits="userSpaceOnUse">
<stop stop-color="#1D82C5"/>
<stop offset="1" stop-color="#12AF8D"/>
</linearGradient>
</defs>
</svg>
